# xmcd
#
# Track frame offsets:
#	150
#	14857
#	26078
#	37028
#	54105
#	68397
#	80935
#	96127
#	106855
#	120572
#	136834
#	152302
#	171904
#	186743
#	204481
#	214200
#	227470
#	239442
#
# Disc length: 3339 seconds
#
# Revision: 1
# Processed by: cddbd v1.5.2PL0 Copyright (c) Steve Scherf et al.
# Submitted via: audiograbber 1.83.01
#
DISCID=f40d0912
DTITLE=Best Of Country Songs - CD 2
DYEAR=2011
DGENRE=Country
TTITLE0=John Denver - Take Me Home Country Roads
TTITLE1=Johnny Cash - Oh Lonesome Me
TTITLE2=Roger Miller - King Of The Road
TTITLE3=Lynn Anderson - Blue Bayou
TTITLE4=Stonewall Jackson - Don't Be Angry
TTITLE5=Wynn Stewart - Wishful Thinking
TTITLE6=Merle Haggard - Today I Started Loving You Again
TTITLE7=Sammi Smith - The Letter
TTITLE8=Hank Snow - Answer To Blue Velvet Band
TTITLE9=Will Rivers - Below No Pó
TTITLE10=Freddy Fender - La Paloma
TTITLE11=Lucky - Broken Dreams
TTITLE12=Charlie Pride - Christal Chandeliers
TTITLE13=John Law - I Should Have Known Better
TTITLE14=Lynn Anderson - Snowbird
TTITLE15=Bobby Bare - Detroit City
TTITLE16=Sandy Posey - Bring Him Home Safely To Me
TTITLE17=Roy Drusky - Blue Eyes Crying In The Rain
EXTD=
EXTT0=
EXTT1=
EXTT2=
EXTT3=
EXTT4=
EXTT5=
EXTT6=
EXTT7=
EXTT8=
EXTT9=
EXTT10=
EXTT11=
EXTT12=
EXTT13=
EXTT14=
EXTT15=
EXTT16=
EXTT17=
PLAYORDER=
